<?xml version="1.0" encoding="UTF-8"?>
<svg width="640" height="480" xmlns="http://www.w3.org/2000/svg" xmlns:svg="http://www.w3.org/2000/svg">
 <title>Canada Map Grey White</title>

 <metadata id="metadata7726">image/svg+xml</metadata>
 <g>
  <title>Layer 1</title>
  <g id="g7728">
   <g id="g7730">
    <path d="m520.256165,343.211456l0,-0.93631l-0.933044,-2.810089l0,-2.810089l1.866028,0l0,2.810089l6.54303,0l1.869019,-0.93631l1.865967,-1.873779l1.869019,-1.87262l1.868958,0l0.935974,0.93631l0,0.93631l-0.935974,2.810089l-0.932983,1.87381l1.868958,0.936279l0,0.93631l-7.475952,0l-2.802002,0.93631l-2.805054,-0.93631l-2.801941,0z" id="path7732" stroke-miterlimit="10" stroke-linecap="square" stroke="#ffffff" fill="#bfbfbf"/>
    <path d="m60.595581,118.432266l0.935158,-3.746994l0,-4.682999l-8.409389,0l0,-2.807991l-0.93399,0l76.610218,-71.178013l4.672211,5.618999l3.735886,0.936001l0.933899,1.872002l3.738312,4.682987l0.934189,1.875l-0.934189,0.936001l-0.935104,1.872002l-1.867813,1.87199l-1.869293,1.875008l-2.803192,4.683029l-3.737091,1.871994l-0.933899,2.810997l0.933899,1.872002l0.935394,0.935989l2.801697,1.872002l0.935394,0l0,1.875008l-0.935394,0.935989l0,3.747002l-0.932693,1.875l-2.804398,0.932991l-0.933899,0l-0.933914,1.875l0,1.872002l3.737106,0l-0.933899,2.810997l-0.935394,1.875l-1.867813,1.872002l-0.933899,0l-1.869301,0.935997l-0.933899,0l-0.933899,1.872002l-0.934189,1.875l0,0l0.934189,0.935989l0,0l-0.934189,5.619026l0.934189,0l0.933899,0.936005l1.869011,1.875l0,1.872009l0.934189,0l0,2.807983l-1.869301,4.683006l0,1.875l-2.801987,0l-0.935112,2.807983l0,1.874985l0.935112,1.872009l0,1.871994l-1.869011,2.811012l-0.934189,0l-0.933899,1.874084l0,4.683014l2.801987,0l0,2.810089l0.935112,6.555603l0.934189,0l-0.934189,1.872604l-0.935112,2.810104l0,3.746384l2.8032,0l0.933899,0.936295l0.935112,1.87291l2.802002,0l1.869293,1.873795l1.869003,0l0,1.872604l-0.935104,2.810104l0,1.872604l-1.869293,0.9375l-0.933899,3.746384l-14.94841,-8.430283l-18.685501,-12.174606l-18.684288,-13.112091l-16.817711,-15.923096l0,0z" id="path7734" stroke-miterlimit="10" stroke-linecap="square" stroke="#ffffff" fill="#bfbfbf"/>
    <path d="m43.779171,206.471466l0.93399,2.810104l0.93396,1.872604l-0.93396,1.873779l-0.93399,0.93631l-0.93399,1.872604l0.93399,3.746689l-0.93399,0.93631l-1.869141,0l0,-0.93631l-1.86797,-3.746689l0,-6.555298l1.86797,-0.93631l0.933979,-3.746689l0,-4.683914l0.935162,-1.872604l1.867981,-2.808884l0.93396,0l0.935158,1.872604l0.93399,0.936279l0,1.872604l2.803139,0l0.93396,1.87381l-0.93396,0.936295l-1.869148,0.93631l-0.93399,0.9375l-1.869148,1.872894l-1.86795,0z" id="path7736" stroke-miterlimit="10" stroke-linecap="square" stroke="#ffffff" fill="#bfbfbf"/>
    <path d="m67.135834,287.954163l0,-2.810089l1.869049,-2.81012l-1.869049,-5.619293l-0.934006,-1.87381l-1.869148,-2.810089l0,-4.681824l-1.867981,-6.556488l-1.869118,-1.872589l-0.93399,-0.93631l-3.737099,-3.746704l-0.93399,-4.682678l-1.869152,-2.810104l-1.867981,-1.87381l-3.737099,0l-0.93399,1.87381l0.93399,2.810104l1.867981,1.872559l0.935158,0.93634l-1.869148,1.873779l0,2.810425l0.93399,0.936279l1.869118,0.93631l1.867981,0l0,6.556519l1.869152,2.808868l0,1.874084l0.93399,0.93631l0.935127,0.93512l0,2.810089l0.93399,1.87381l1.867981,0l0.93399,2.808899l0.935158,1.87381l0,6.556793l0.93396,0l3.737129,1.872589l0.934006,-1.872589z" id="path7738" stroke-miterlimit="10" stroke-linecap="square" stroke="#ffffff" fill="#bfbfbf"/>
    <path d="m135.337875,315.114655l-12.145493,-4.683899l-15.882301,-6.555603l-14.949608,-7.491608l-12.145493,-6.556793l-6.538803,-4.682678l0,-4.683014l1.867805,-0.9375l-1.867805,-0.936279l0,-1.87262l-2.8032,0l0,-0.9375l-3.73716,-5.617828l0,-2.810394l1.869064,-1.872559l0,-4.683929l-1.869064,0l-0.93399,2.81012l-1.869148,-0.93631l0,-1.87381l-1.867981,-2.808899l-0.93396,-1.873779l-1.869148,-1.872925l-2.801971,-4.682678l-0.935127,-2.810104l-0.93399,-1.87381l0,-1.871704l0.93399,-0.9375l3.737099,0l0,-1.872604l0.93399,-3.746384l0.935158,-0.936295l4.671089,0l0,-3.746414l-1.869148,-0.9375l-2.801941,0.9375l-0.935158,-2.810394l-0.93399,-1.872604l0,-2.810104l0.93399,-1.872589l0.935158,-1.873795l0,-1.872604l0.93396,-0.9366l1.867981,-1.87381l1.869148,-1.872604l0,-0.936295l-1.869148,-1.873779l-1.867981,2.810074l-1.869118,0l0,-4.682678l0.935158,-2.810104l0,-3.746704l-0.935158,-2.810104l0,-1.872604l1.869118,0l1.867981,-0.936279l1.869148,-1.872604l0.93399,-1.87381l3.73716,-1.872894l0,-12.175797l-1.868095,-1.872604l-1.869064,0l-0.93399,-2.810104l0.93399,-1.873795l1.869064,-1.872604l1.868095,-2.809204l0,-6.556488l2.8032,-4.682693l0,-11.239517l-1.869301,-4.682999l0,-1.872604l1.869301,-1.872589l-1.869301,-2.810089l-0.933899,-1.87381l-4.67115,0l-3.737129,1.87381l-2.803108,0l-3.737099,1.872589l-0.93399,-1.872589l0.93399,-1.87381l0.935127,-2.809204l0.93399,-3.746094l1.867981,-2.810989l0.93399,-4.683014l16.817688,15.923111l18.684303,13.112091l18.685501,12.174591l14.948387,8.430298l10.27742,6.555603l10.27739,4.682709l-32.699989,62.750397l0,6.555603l1.868988,3.746399l2.802002,3.746704l0,2.810089l-1.868103,1.872589l0,2.81012l0.934212,0.9375l2.8032,0.93631l0.933899,2.808868l0,5.620514l0.933891,1.871399l2.803192,0.9375l0.933899,1.87262l0.933914,0.936279l0,8.430603l0.93541,2.808899l1.868988,0.9375l0.932709,0.93631l0.935394,1.872894l0.933899,2.810089l0,1.87381l-0.933899,1.872589l-1.868103,0.93631l0,1.872589l-0.935104,1.87262l0.935104,1.874084l0.932709,0l0,5.618988l0.935394,1.87381z" id="path7740" stroke-miterlimit="10" stroke-linecap="square" stroke="#ffffff" fill="#bfbfbf"/>
    <path d="m150.28627,179.310669l-32.699989,62.750397l0,6.555603l1.868996,3.746399l2.802002,3.746704l0,2.810089l-1.868111,1.872589l0,2.81012l0.934212,0.9375l2.8032,0.93631l0.933899,2.808868l0,5.620514l0.933899,1.871399l2.8032,0.9375l0.933914,1.87262l0.933884,0.936279l0,8.430603l0.93541,2.808899l1.869003,0.9375l0.932693,0.93631l0.935394,1.872894l0.933899,2.810089l0,1.87381l-0.933899,1.872589l-1.868088,0.93631l0,1.872589l-0.935104,1.87262l0.935104,1.874084l0.932693,0l0,5.618988l0.935394,1.87381l4.671005,1.872589l18.685501,5.620514l6.540298,1.872589l37.369797,-124.565689l-20.553299,-6.555298l-15.882599,-6.556793l-15.882309,-7.491898z" id="path7742" stroke-miterlimit="10" stroke-linecap="square" stroke="#ffffff" fill="#bfbfbf"/>
    <path d="m202.604477,199.914658l-37.369797,124.565689l14.01329,3.746399l20.554504,5.619293l22.422913,4.682709l6.538788,0.93631l20.553604,-126.437103l-15.882294,-3.746384l-14.948395,-4.683014l-15.882614,-4.683899z" id="path7744" stroke-miterlimit="10" stroke-linecap="square" stroke="#ffffff" fill="#bfbfbf"/>
    <path d="m249.31778,213.027954l-20.553604,126.437103l15.882599,2.810089l23.357681,2.809204l7.473022,0.9375l0.935394,0l-0.935394,-2.810394l0.935394,-1.872589l3.737091,-38.401215l10.2771,-8.427887l34.566895,-36.526215l-2.802002,-1.873779l-3.737091,-1.872925l-3.737091,-0.936279l-1.869019,0.936279l-4.671295,1.872925l-7.474182,1.873779l-3.737122,0.93631l-2.802917,0.93631l0,-0.93631l0.933929,-0.93631l1.868988,-0.936279l2.803192,0l2.803223,-2.810425l0.933899,-0.936279l-0.933899,-3.746399l-0.93512,-4.683914l0,-3.746689l-0.934204,-4.681503l-0.933899,-2.810104l-5.60611,0l-1.868073,-1.872604l-0.93512,-0.9375l-0.932983,0.9375l-0.935089,-0.9375l-0.933899,-1.872894l0.933899,-2.808899l0.935089,-3.746399l0.932983,-1.873795l0,-1.872604l-11.210083,-0.9366l-14.948425,-1.873795l-15.883759,-2.808914z" id="path7746" stroke-miterlimit="10" stroke-linecap="square" stroke="#ffffff" fill="#bfbfbf"/>
    <path d="m393.197144,319.797363l-1.868988,-0.93631l-1.868988,0l-1.868988,0.93631l-1.869049,-0.93631l0,-1.87381l-0.932983,-3.746399l-1.868988,-2.810089l-2.802002,0l-0.936005,-2.808899l-0.932983,-2.810394l-1.868988,-0.93631l-2.802032,-1.872589l-0.936005,-2.808899l0.936005,-3.746399l-0.936005,-1.874115l-0.932983,-2.810089l-0.936005,-3.746399l-0.933014,-3.746399l0.933014,-3.746704l0.936005,-3.746399l0,-0.93631l-2.802002,0l-3.738037,0.93631l-4.670959,-0.93631l-2.802002,0l-2.804993,1.87381l-0.933044,0l-3.737976,-0.9375l-0.932983,-1.871399l-0.933014,-2.81012l-2.804993,-0.93631l-5.604004,-0.936584l-3.738922,-3.746368l-0.933868,0l-0.933929,-4.683929l-0.934174,-1.872589l-2.802917,-0.93631l-5.606384,0l-34.566895,36.526215l-10.2771,8.427887l-3.737122,38.401215l1.867798,0.936279l0.933899,4.683014l0.935425,0.93631l5.604889,1.873779l5.605194,1.87262l4.672211,2.810089l3.737091,1.872589l1.868103,2.810394l4.672211,0l3.737091,-2.810394l1.867798,-0.936279l7.474518,3.746674l1.867767,0l1.869324,-1.872894l0.935089,-0.9375l3.735901,-0.936279l0.933899,-1.87262l0.935089,-2.810089l0.934204,-1.87381l2.802917,-0.936279l3.737091,1.873779l5.605804,0.93631l2.802002,1.872589l1.868988,2.81012l0.936005,2.810089l1.865997,0.936584l3.737976,1.87381l0.933044,0.93512l0.936005,1.872589l1.868988,0.9375l0,8.429382l0.932983,3.746429l0.933014,0.936279l3.737976,0.93631l0.936005,0.93631l1.869019,0.9375l4.667999,-1.87381l3.737976,0.93631l2.802032,0.9375l4.673981,-0.9375l2.802002,0.9375l0.932983,0.936279l1.869049,0.93631l1.868988,-0.93631l2.801971,0l1.869019,0.93631l0,0.9375l0.935974,2.809204l0.933014,3.746399l2.802032,2.808899l0,3.746704l-2.802032,0.936279l-1.868988,-0.936279l-0.933014,-1.874115l-2.801971,-1.872589l-3.738037,-2.808899l0,0.93631l0.933044,0.9375l0.935974,1.871399l0,2.810394l-1.869019,3.746368l-0.936005,3.74649l0.936005,4.68277l-0.936005,2.810181l-2.801971,0.93631l-0.933014,2.810181l-1.868988,4.6828l0.932983,1.87149l-0.932983,1.87381l-3.737976,0l0,2.810181l0.932983,0.93631l0.936005,0l2.801971,-0.93631l4.67099,-2.810181l1.869049,-2.81012l2.804993,-2.807831l5.603973,0l2.802032,-0.9375l2.801971,-2.80899l1.868988,0l2.804993,-0.9375l1.865997,-0.93634l0.936035,-0.93631l0,-1.87384l-7.476013,0l0,-0.93634l0.936005,-2.81015l3.737976,-2.80896l3.735046,-1.87384l3.737976,-0.93631l3.734985,0.93631l4.674011,-0.93631l2.802002,-1.87384l2.802002,-0.936249l2.804993,-4.682983l3.735016,-5.619019l4.67099,-3.745483l2.805023,-1.87381l4.670959,-3.746399l-0.935974,0l-3.734985,-0.936279l-2.805023,0l-3.734985,1.872589l-1.869019,0.93631l-8.408997,0l-11.210999,-4.682709l-3.737976,0l-5.604034,-4.682709l-3.737976,-2.810394l-0.933014,-2.808899l-4.671021,-43.082703l-1.868988,-1.872894z" id="path7748" stroke-miterlimit="10" stroke-linecap="square" stroke="#ffffff" fill="#bfbfbf"/>
    <path d="m549.21814,333.846039l0,-8.429382l-3.734924,0l0,3.746399l-0.936035,3.745483l-1.866028,1.87381l0,2.81012l0.932983,2.808899l1.86908,1.873779l3.734924,-0.936279l0.936035,0l1.868958,-1.87381l1.866028,-1.872589l0,-5.619324l-3.734985,1.872894l-0.936035,0z" id="path7750" stroke-miterlimit="10" stroke-linecap="square" stroke="#ffffff" fill="#bfbfbf"/>
    <path d="m521.189148,350.704559l0,1.872589l0.935974,0.9375l1.869019,0l2.802002,-0.9375l0.936035,-0.936279l0.932983,1.873779l-0.932983,1.87262l-2.802002,0.936279l0.932983,1.87381l-0.932983,0.936584l-2.805054,-0.936584l-2.802002,0.936584l-0.935974,1.87381l-1.866028,3.745209l-2.804993,2.808899l-1.869019,1.873779l-0.932922,2.810425l0.932922,4.682678l0.936035,0.93631l3.737976,0l1.866028,1.87262l0.935974,0l1.866028,-0.93631l0,-1.87262l1.868958,-1.873779l0.936035,-1.87262l1.869019,-3.746704l0,-2.810089l1.869019,-2.810089l3.734985,0l0.935974,-2.807709l0.933044,-1.87381l3.737915,-0.936584l2.802063,-2.810089l3.737976,-4.682709l3.734985,-2.81012l1.869019,-1.872589l0,-0.9375l-1.869019,-1.872894l-2.802002,0l-2.802002,1.872894l-4.671021,0.9375l-3.737915,0l-2.802002,1.872589l-1.869019,0l-0.932983,-0.936279l-1.869019,0l-1.869019,0.936279l0,0.93631l-1.869019,0l-0.935974,1.87381l0,0z" id="path7752" stroke-miterlimit="10" stroke-linecap="square" stroke="#ffffff" fill="#bfbfbf"/>
    <path d="m567.905151,276.714661l0,4.682709l2.802002,-0.93631l1.868958,1.872894l1.869019,0.936279l4.671021,-2.809174l1.868958,-3.746399l1.869019,-0.9375l2.802002,0l0.933044,0.9375l-0.933044,4.682709l0,2.810394l0.933044,1.872589l1.868958,0l0.932983,-1.872589l1.869019,-2.810394l0.935974,-2.810089l1.869019,0.936279l0,6.556793l-1.869019,0.93631l0,3.746399l2.802063,0.9375l0,-4.683899l0.935974,-0.93631l0.932983,0.93631l0,4.683899l0.933044,2.809204l1.868958,-2.809204l1.869019,0l0.935974,0.93631l-0.935974,3.746674l0,5.619019l-1.869019,1.872589l-0.932983,0l-0.935974,-1.872589l-0.933044,0.935089l-1.868958,0.9375l-1.866028,0l-0.936035,-2.808899l0.936035,-2.810089l0,-2.808899l-0.936035,-0.9375l-0.935974,-0.936615l0,1.874115l-1.869019,2.808899l-0.932983,2.810089l-1.868958,1.871399l0,2.81012l-0.933044,2.810394l-0.935974,1.872589l-3.735046,0l0,-1.872589l1.869019,-2.810394l1.866028,-3.745209l0,-2.808899l-1.866028,0l-1.869019,1.872589l-0.935974,2.808899l-0.932983,0l-1.869019,-0.9375l-0.932983,0l-0.935974,1.87381l-2.802063,0.93631l-9.34198,3.746674l-2.802002,0.93631l-3.737976,3.746399l-2.804993,0.9375l-1.866028,0l-1.869019,-0.9375l1.869019,-3.746399l1.866028,-4.682983l0,-0.93631l2.804993,-0.93631l-1.869019,-0.9375l-0.935974,-0.935089l-1.866028,1.872589l-1.869019,0l-0.935974,-0.9375l0,-1.871399l0.935974,0l1.869019,-2.810089l1.866028,-1.872589l0.935974,-2.810425l-0.935974,-1.872589l0,-5.620209l-1.866028,-5.619293l1.866028,-4.683899l-1.866028,-3.746399l1.866028,-4.681824l0,-3.746368l4.67395,-3.746399l1.869019,-0.93631l0.932983,0l0,3.746399l-2.802002,2.81012l0,3.746368l1.869019,2.808014l0,10.303223l0.932983,0.936279l1.869019,-0.936279l0,-2.810425l2.802002,-2.808899l1.869019,0z" id="path7754" stroke-miterlimit="10" stroke-linecap="square" stroke="#ffffff" fill="#bfbfbf"/>
    <path d="m549.21814,265.476379l2.804993,0l0,-0.93631l1.866028,-3.74762l2.804993,-2.808899l0,-3.746704l-2.804993,-2.81012l-1.866028,-2.810059l-1.868958,-5.618103l-0.936035,-0.9375l-1.868958,-0.9375l-4.66803,0l-1.869019,-0.935104l-3.737976,-1.872589l-3.737976,0l-0.933044,1.872589l-1.868958,2.810104l-0.932983,4.681793l-2.804993,1.87381l-0.933044,1.87262l-0.932983,2.810059l-0.935974,2.810425l-2.805054,0l0,-2.810425l0.935974,-4.682678l2.805054,-2.810104l2.802002,-3.745499l1.869019,-4.682693l1.865967,-0.9375l1.869019,-1.872604l0,-1.87381l-5.604004,0l-0.935974,-1.872604l-0.933044,0l-0.932983,1.872604l-2.805054,2.810104l-3.737976,-2.810104l-1.865967,1.87381l-3.737976,-1.87381l-2.802063,-1.872604l-1.868988,-0.9375l-4.67099,0l-1.868988,-0.9366l-1.869019,-2.808899l-0.933014,-1.873779l0,-4.682709l-1.868988,-2.809204l-1.868988,-1.873795l-2.802002,0l0,0l-0.935974,-1.872604l-0.933044,-2.810089l-5.603973,-1.872604l-3.740997,-2.810104l-2.802032,-4.682999l-1.868988,-1.87381l-4.67099,-1.872604l-1.868988,-2.808884l-1.866028,-1.87381l-2.804993,-0.9366l0.936005,5.619293l1.868988,3.746414l3.735016,2.810104l4.67099,6.555603l-0.932983,4.682693l5.604004,0l1.868988,6.556793l2.804993,3.746399l-2.804993,4.681793l8.409027,9.366608l-0.933044,2.810104l4.671021,3.745499l-3.737976,7.492783l-5.604034,-1.873779l-2.804993,1.873779l-7.472992,-1.873779l-2.802002,-2.808899l2.802002,9.365692l-6.539978,-4.683014l0,4.683014l1.868988,3.746399l1.868988,5.618988l2.802002,3.745514l0,3.746399l1.868988,5.620209l5.604004,-5.620209l0,7.493073l6.539978,3.746429l4.671021,-5.619293l4.673981,6.556793l2.802032,-4.683929l-2.802032,-6.555573l0,-4.683899l2.802032,1.875l0,1.871399l3.734985,4.683899l42.042023,-19.66861l1.868958,4.683929z" id="path7756" stroke-miterlimit="10" stroke-linecap="square" stroke="#ffffff" fill="#bfbfbf"/>
    <path d="m480.08313,345.084351l1.869019,2.810089l0.932983,0l3.738037,-0.936279l0.935974,-1.87381l0.933014,-0.936615l1.868988,0l0.932983,0.936615l0,4.683899l2.802002,9.365692l0.936005,1.87381l3.738007,0l0.933014,0.935089l0,2.81012l2.801971,0.936279l0,0.93631l1.869019,0l0,-1.872589l2.802002,-0.9375l2.804993,-0.93631l2.802002,-3.745209l3.737976,-1.872894l1.866028,-1.873779l0.935974,-3.746429l0,-1.872589l1.866028,0.93631l0,0l0.935974,-1.87381l1.869019,-0.93631l0,0l-0.936035,-0.936279l1.87207,-1.87381l-1.87207,0l-3.734985,0.9375l-3.737976,-3.746704l0,-3.746399l-0.933044,-0.936279l-3.737915,0l0,-1.87381l0.932922,-2.81012l-0.932922,-0.935394l-0.933044,-0.93631l-1.868988,0l-0.936005,1.871704l-1.869019,0l-1.865997,-0.935394l-4.67099,0l-2.805023,0.935394l-0.932983,0l-0.936005,0.9375l-1.865997,0.93631l-2.804993,0l-1.865997,-0.93631l-0.935974,0.93631l-0.933044,0.93631l-0.932983,1.87381l0,3.746399l-0.936005,1.872589l-1.868988,0.936279l-1.869019,0.936615z" id="path7758" stroke-miterlimit="10" stroke-linecap="square" stroke="#ffffff" fill="#bfbfbf"/>
    <path d="m480.08313,345.084351l1.869019,-0.936615l1.868988,-0.936279l0.936005,-1.872589l0,-3.746399l0.932983,-1.87381l0.933044,-0.93631l0.935974,-0.93631l1.865997,0.93631l2.804993,0l1.865997,-0.93631l0.936005,-0.9375l0.932983,0l2.805023,-0.935394l1.869019,0l0.932983,-2.810089l0.932983,-1.872589l1.869019,-0.93631l2.802002,0l0.936005,-0.9375l0.933014,-1.872589l3.737976,-1.87381l0.932983,-1.872894l0,-1.87381l-1.869019,-0.93631l-0.932922,-1.872589l-0.933044,-0.9375l-2.804993,0l-4.671021,0.9375l-3.734985,1.872589l-4.674011,2.81012l-3.734985,2.810394l-4.671021,5.618988l-3.737976,4.681793l-4.67099,5.620209l-1.868988,6.555603l-1.869049,4.683899l-1.868988,4.682709l-2.802002,3.746399l-3.737976,1.872894l-5.604004,2.808899l-2.802002,3.746399l-2.804993,3.746704l-0.933044,4.682709l-1.868988,2.810089l-4.67099,2.810089l-2.804962,0.93631l-0.933014,1.87381l11.210999,-3.74762l5.606995,-0.936279l5.604004,-0.93631l1.868988,-0.93631l0.936005,-1.873779l0.932983,-1.87262l3.738007,0l2.802032,-6.556793l0,-1.872589l-1.869049,-2.81012l0,-2.808899l1.869049,-3.746674l1.868988,-5.619019l2.801971,-4.683899z" id="path7760" stroke-miterlimit="10" stroke-linecap="square" stroke="#ffffff" fill="#bfbfbf"/>
    <path d="m508.112152,305.747772l2.802032,-1.87262l4.671021,-0.9375l4.670959,0l4.674011,0.9375l2.802002,-0.9375l1.869019,0l0.932983,1.87381l0,1.872894l-2.802002,0.9375l-1.869019,0l-1.869019,0.93631l-4.671021,-0.93631l-3.737915,0l-1.869019,-1.874084l-5.604034,0z" id="path7762" stroke-miterlimit="10" stroke-linecap="square" stroke="#ffffff" fill="#bfbfbf"/>
    <path d="m388.526154,183.993652l7.473022,0l2.802002,4.682709l4.670959,-1.87381l3.738037,-4.681488l4.67099,0l3.738007,8.427902l6.539978,-1.872604l0.933014,4.682999l3.738007,1.87381l1.869019,-1.87381l3.737976,1.87381l3.734985,-1.87381l2.802032,0l-3.735016,4.682693l2.802002,5.619003l-0.935974,5.620514l1.868988,3.746384l4.67099,2.808899l0.935974,1.87381l3.738037,-1.87381l2.801971,1.87381l-0.935974,7.491882l3.737976,-2.808884l0,-6.556808l4.673981,0l1.866028,-6.555283l5.606995,6.555283l-2.804993,-9.365402l1.868988,-3.746689l-1.868988,-4.682709l0.936005,-6.555588l0.932983,0.936295l0.936005,5.619293l1.868988,3.746399l3.735016,2.810104l0.936005,4.683014l3.734985,1.872604l-0.932983,4.682678l5.604004,0l1.868988,6.556808l2.804993,3.746384l-2.804993,4.681808l5.606995,6.556488l2.802032,2.810104l-0.933044,2.810104l4.671021,3.745499l-3.737976,7.492798l-5.604034,-1.873779l-2.804993,1.873779l-7.472992,-1.873779l-2.802002,-2.808899l2.802002,9.365662l-6.540039,-4.682983l0,4.682983l1.869049,3.746429l1.868988,5.618988l2.802002,3.745483l0,3.746429l1.868988,5.620209l5.604004,-5.620209l0,7.493073l6.539978,3.746429l4.671021,-5.619293l4.673981,6.556793l2.802002,-4.683929l-2.802002,-6.555573l0,-4.683929l2.802002,1.875l0,1.871429l3.735016,4.683899l42.042023,-19.66861l1.868958,4.683929l-1.868958,4.682953l-6.537048,1.871429l0,7.492798l-4.670959,5.620514l0,2.810089l-7.476013,5.618988l-9.342041,3.746704l-18.68396,5.617798l-10.278015,2.81012l-2.802002,4.682983l0.933014,7.492798l-6.539978,2.810394l-6.540009,11.239197l-3.738007,13.111206l-1.868988,3.746399l-2.802032,6.556519l-9.34201,4.682983l-4.670959,6.555298l-1.869019,4.683014l-1.868988,3.746399l-2.802032,2.810089l-0.935974,0l-3.734985,-0.93631l-2.804993,0l-3.735016,1.87262l-1.869019,0.936279l-8.408997,0l-11.210999,-4.682678l-3.737976,0l-5.604034,-4.682709l-3.737976,-2.810394l-0.933014,-2.808899l-4.670959,-43.082703l0,0l-1.869049,-1.872894l1.869049,-4.682709l4.670959,-0.9375l-2.804993,-5.618988l0.936005,-4.683014l-0.936005,-4.681488l-1.865967,-2.81012l-0.936005,-2.810394l1.868988,-5.618988l-4.671021,-2.810089l-0.932983,-5.620514l4.671021,-3.746399l5.603973,-5.617828l6.540009,-11.239471l4.67099,-0.93631l-3.738007,-4.682983l-2.801971,-5.620224l-5.604034,-9.364502l-7.476013,-4.683899l-1.865967,-1.872589l0.932983,-5.619308l3.738037,-5.620178l0,-6.555634l-2.805054,-2.810059l-0.932983,-4.682709l-2.802002,0l0,-3.746704l1.869019,-4.682709l-5.606995,-2.808899l0,-4.684189l3.737976,-6.555313z" id="path7764" stroke-miterlimit="10" stroke-linecap="square" stroke="#ffffff" fill="#bfbfbf"/>
    <path d="m354.890167,58.49229l0,3.74699l0.936005,0.936001l1.868988,0.936001l0.932983,0.936005l0.933014,1.874992l0,1.872002l2.805023,0l7.472961,0l0.933014,-1.872002l0,-1.874992l-0.933014,-0.936005l0,-0.936001l-1.868988,-0.936001l-1.865997,0l0,-1.875l-0.935974,-1.87199l0,-0.936001l-3.738007,0l-2.802032,0.936001l-3.737976,0z" id="path7766" stroke-miterlimit="10" stroke-linecap="square" stroke="#ffffff" fill="#bfbfbf"/>
    <path d="m278.28064,103.447281l0.933899,-2.807991l0,-1.875008l-0.933899,0l-1.867798,-1.871994l-1.869293,-0.936005l-0.933899,-3.746994l0,-2.807999l-0.933899,-1.875l-3.737091,0l-0.934204,-2.811005l0,-4.680016l0.934204,-6.557991l0.933899,-4.682999l-0.933899,-4.682999l0.933899,-0.936001l0,-0.936001l-4.671021,-4.683002l-0.934204,0l-1.868958,0.936012l-0.934204,1.87199l0,14.984993l-1.869019,0.938995l-0.933899,-0.938995l-1.868103,-0.936005l0,-2.810997l0.933899,-4.679993l0.934204,-2.810997l-0.934204,-3.747002l-3.737076,0l0,0l-2.802917,2.811001l-0.934204,0.936001l-3.737091,0l-0.933899,-0.936001l0.933899,-0.936001l1.868103,0l0,-1.875l-0.933899,-2.808002l-7.474197,0l0,-1.875l1.869003,0l0.933884,-1.871986l0.934204,-0.936001l0,-1.872002l-0.934204,-1.875l-2.802887,0l-1.868088,1.875l-0.935104,0l-2.802002,0.936001l-0.935104,-0.936001l-4.671295,0l-0.933914,0.936001l-0.933899,1.872002l-1.869293,6.554989l-4.671005,0l0,2.811001l1.869308,0.936001l2.801697,0.935997l2.803192,1.875l2.803223,1.872002l0,0.935989l-4.671005,0l-2.803207,-0.935989l-3.737106,0l-1.869308,2.807991l0,0l0.934204,1.875008l1.869003,0l0.933914,0.935989l5.606384,1.875l3.737122,1.872002l5.605179,4.682991l1.869019,1.872025l0,0.938972l-0.935104,1.872032l-0.933914,0l-2.803192,-1.872032l-4.671295,-0.938972l-4.671005,-1.872025l-3.737106,-1.875l-1.869003,0l-1.868088,1.875l0,4.683029l2.803192,1.875l3.737106,2.807999l5.604904,3.746994l0,0l-0.933914,2.807999l0,4.682999l0.933914,1.875l7.474487,0l2.802902,1.872002l5.605209,0l1.868988,-1.872002l6.539108,0l0.935104,-1.875l0.934204,-0.936012l2.802872,0l0,2.811012l0.934204,0l1.869019,1.872002l7.474182,6.554985l2.802002,0l2.803192,-1.871994l0.933899,0l0.933899,-3.746994l-0.933899,-0.935997l-4.67099,0l0,-1.872002l0.933899,-1.875l1.869293,-0.936012l2.801697,0l1.869293,0.936012l0.933899,0z" id="path7768" stroke-miterlimit="10" stroke-linecap="square" stroke="#ffffff" fill="#bfbfbf"/>
    <path d="m267.069366,55.68129l0,0l1.869293,-1.871998l2.802887,-0.936001l1.868134,0.936001l0.933868,1.871998l0.933899,2.811001l0,3.74699l-0.933899,0.936001l-0.933868,0.936001l-0.933929,0l-0.934204,-0.936001l0,-2.811001l-0.935089,-2.807991l-2.802002,0l-0.935089,-1.875z" id="path7770" stroke-miterlimit="10" stroke-linecap="square" stroke="#ffffff" fill="#bfbfbf"/>
    <path d="m290.427063,87.526253l-0.935089,-1.871986l-1.867828,-4.686005l-1.869263,-2.807991l-2.803223,-2.810997l-1.867798,-1.871994l-0.933899,0l0,-4.682999l0.933899,-1.87204l0.933899,0l0.933899,1.87204l1.869293,0.935989l0.933929,1.872002l1.869263,0l0.933929,-2.807991l0.933899,-3.74704l-0.933899,-2.807991l-0.933929,0l0,-3.747002l0.933929,-0.935997l1.868988,0l1.868103,0.935997l0.933899,1.872002l1.868103,0l1.868988,-1.872002l0.934204,0l0.93512,1.872002l0,2.810989l-0.93512,1.872002l-1.868103,1.875l-0.935089,1.87204l0,0l0.935089,0.935989l1.868103,1.872002l0.93512,0l0.933868,1.875008l0,1.871994l-0.933868,2.810997l-1.869324,2.807991l-1.868988,3.747002l-1.868103,0.939003l-2.802002,1.871986z" id="path7772" stroke-miterlimit="10" stroke-linecap="square" stroke="#ffffff" fill="#bfbfbf"/>
    <path d="m285.754852,114.685272l-0.933899,-0.936005l0,-1.871994l0.933899,0l1.869293,-1.875l0.933899,-1.871994l0,-0.935997l0.933899,-1.872002l0.93512,-1.875l0.932983,0l0.93512,1.875l0.933899,0l0,1.872002l0.934174,0.935997l1.869019,3.746994l0.933899,1.871994l1.869293,0.936005l0,3.746994l-0.935089,0.935997l-0.934204,1.874985l-2.802917,0l-0.934174,-1.874985l-1.869019,-0.935997l-2.802002,-1.871994l-2.803192,-1.875z" id="path7774" stroke-miterlimit="10" stroke-linecap="square" stroke="#ffffff" fill="#bfbfbf"/>
    <path d="m306.309662,80.035271l-0.935089,-3.747002l-0.934204,-2.810989l0,-1.875008l0.934204,-2.807991l0,-1.872002l-0.934204,-3.746998l0,-2.811001l1.869293,-2.808029l1.867798,-1.875l1.869324,0l0.933899,1.875l7.474182,0l0,4.683029l-1.868988,1.872002l0,7.49099l-0.934204,1.875008l-3.737122,0l-0.933868,-1.875008l-1.869019,0l0,1.875008l0.93512,1.871994l0,4.685997l-3.737122,0z" id="path7776" stroke-miterlimit="10" stroke-linecap="square" stroke="#ffffff" fill="#bfbfbf"/>
    <path d="m385.721161,121.243279l-0.932983,-1.874977l-1.868988,0l-1.868988,1.874977l-1.869049,0l0,6.554985l0.936005,2.810699l1.869019,1.872604l2.802002,0l0.932983,-1.872604l0,-2.810699l0.936005,-4.682991l-0.936005,-1.871994z" id="path7778" stroke-miterlimit="10" stroke-linecap="square" stroke="#ffffff" fill="#bfbfbf"/>
    <path d="m346.484161,150.276367l-2.804993,0l-1.869019,4.682983l-1.865997,9.366608l0.933014,1.872589l1.868988,1.87381l0,2.809204l-0.936005,1.872604l-1.865997,1.873795l-0.935974,0.936295l0,3.746414l8.408966,0l0.936005,4.682983l0.933014,0l1.868988,-1.872589l0.933014,-2.810394l0.936005,-3.746414l0.933014,-0.936295l2.801971,0l0,0l0.936005,-1.873795l0,-1.872604l1.865997,0l0.936005,1.872604l1.868988,1.873795l0.933014,0.936295l1.869019,1.87381l4.670959,0l0.933014,-1.87381l0,-4.682693l-0.933014,-0.93631l-0.932983,0l-2.802002,0.93631l-0.935974,0l-0.933014,-0.93631l-0.936005,-1.872894l0.936005,-3.746399l-0.936005,0l-0.933014,-0.9375l-3.738007,0l-3.737976,-1.872604l-2.802002,-1.873795l0,-2.808884l-3.735016,0l-1.868988,-1.873825l-0.936005,-1.872894l0.936005,-2.810089z" id="path7780" stroke-miterlimit="10" stroke-linecap="square" stroke="#ffffff" fill="#bfbfbf"/>
    <path d="m365.168182,183.993652l-1.869019,0l-1.868988,1.872604l-0.932983,0.936295l-1.869049,-0.936295l-1.868988,0l0,0l-1.868988,2.810104l-0.932983,2.810104l0,1.872894l5.603973,0l0.936035,-0.9366l0.932983,-0.936295l1.868988,-0.9375l1.869019,-1.872604l0.935974,-2.810104l-0.935974,-1.872604z" id="path7782" stroke-miterlimit="10" stroke-linecap="square" stroke="#ffffff" fill="#bfbfbf"/>
    <path d="m377.312164,198.042053l1.868988,0l0.936005,-4.682693l0,-1.872894l-0.936005,-0.9375l-1.868988,-1.872604l-0.932983,1.872604l-1.869019,1.873795l0,2.81041l0.933014,0l0.936005,2.808884l0.932983,0z" id="path7784" stroke-miterlimit="10" stroke-linecap="square" stroke="#ffffff" fill="#bfbfbf"/>
    <path d="m142.812073,51.001259l-0.934204,0.936001l-0.935089,1.87199l-1.867813,1.872002l-1.869293,1.875008l-2.803192,4.682991l-3.737106,1.872002l-0.933884,2.810989l0.933884,1.87204l0.93541,0.935989l2.801697,1.872002l0.935394,0l0,1.875008l-0.935394,0.935989l0,3.747002l-0.932693,1.875l-2.804413,0.932991l-0.933884,0l-0.933914,1.875l0,1.872002l3.737106,0l-0.933899,2.810989l-0.93541,1.875008l-1.867798,1.871986l-2.8032,0l-0.933899,0.936012l-0.933899,1.871994l-0.934196,1.875l0,0l0.934196,0.935997l0,0l-0.934196,5.618988l0.934196,0l0.933899,0.936005l1.868988,1.875l0,1.87204l0.934212,0l0,2.807991l-1.869301,4.682999l0,1.875l-2.801994,0l-0.935104,2.807991l0,1.874985l0.935104,1.872009l0,1.871986l-1.869003,2.811005l-0.934196,0l-0.933891,1.8741l0,4.682983l2.801987,0l0,2.81012l0.935104,6.555588l0.934196,0l-0.934196,1.872604l-0.935104,2.810104l0,3.746384l2.8032,0l0.933899,0.93631l0.935104,1.872894l2.80201,0l1.869293,1.87381l1.869003,0l0,1.872604l-0.935104,2.810104l0,1.872574l-1.869308,0.9375l-0.933884,3.746414l10.27739,6.555603l10.27739,4.682693l15.882309,7.491898l15.882599,6.556808l20.553299,6.555298l15.882614,4.683899l14.948395,4.683014l15.882294,3.746384l15.883759,2.808884l14.948425,1.873825l11.210083,0.9366l1.869019,-2.810425l0,-4.682678l0.934174,-2.808899l5.60611,-6.556808l1.868103,-3.746399l1.868988,-2.808884l1.868134,-6.556808l-3.737122,0l-0.934204,-1.87381l2.803192,-2.808899l6.540314,2.808899l3.735901,-0.936295l0,-3.745209l-1.868103,-2.810394l-5.604889,-3.746399l-14.014496,-2.810089l-0.93512,-1.872604l0,-0.93631l0.93512,-1.872894l5.605194,1.872894l11.211304,4.682709l1.868988,2.810104l3.737122,-1.87381l5.605194,3.746399l4.67099,-3.746399l8.409302,-2.810089l3.737091,-6.555618l1.867828,-4.682678l-10.27713,-1.87381l-6.539093,-6.555603l0,-2.810104l10.277405,4.682999l3.735901,1.87381l2.802917,-3.746704l2.801971,-2.810104l-0.932983,-1.872589l-1.868988,-2.810104l2.801971,-1.872604l7.476013,4.682709l1.868988,-0.936295l-1.868988,-3.746414l0.932983,-2.810394l3.738037,4.682999l4.670959,-1.872604l1.869019,-2.810394l1.868988,-3.745193l0.933014,-2.81012l-6.540009,-8.42907l1.868988,-4.683014l0.933014,-9.365967l-11.208008,-6.555031l-4.673981,4.680023l0.932983,11.240974l-4.667999,6.555016l-2.803802,6.557068l-5.606079,-4.682983l1.868988,-10.304085l-4.672211,-7.490982l-4.6698,11.237976l-1.869293,-8.429977l-11.211304,-7.49099l2.802002,-6.555038l-5.605194,-15.923988l-2.802887,-3.747002l-0.934204,1.875l-6.540009,20.603981l9.34198,8.430038l-7.472992,13.10997l-3.737091,12.1782l-6.540283,-15.922203l-7.474213,4.683014l-8.408081,1.872002l-14.948425,-9.365997l-0.934204,-8.429993l-14.948364,1.875008l3.737076,6.554985l-3.737076,14.049301l-8.408096,-18.7323l-17.751617,-3.746994l-0.933899,-6.555031l4.671005,0l-0.933899,-6.554993l-8.409302,-2.810989l-5.605194,-9.365997l-5.605209,-3.746994l-3.737091,-5.618988l-6.540009,-0.936012l0.933899,-5.618988l-5.605194,2.807999l-2.802902,-4.680038l1.869003,-6.557991l-1.869003,-2.807991l-3.737106,2.807991l-3.737396,1.875l-9.341995,-1.875l-6.540298,-4.682999l6.540298,1.875008l7.472992,0.936001l1.869003,-0.936001l-8.408096,-4.682999l-8.408112,0l-5.606384,0.936001l-3.737106,3.746998l-1.867798,-4.682999l-3.737106,-1.872002z" id="path7786" stroke-miterlimit="10" stroke-linecap="square" stroke="#ffffff" fill="#bfbfbf"/>
    <path d="m338.074554,58.49229l0.933624,3.74699l-0.933624,4.682999l-3.737091,4.679993l-0.934204,3.747002l0.934204,2.810997l4.670715,4.683037l0.935974,6.557983l1.866028,1.872009l2.801971,0l1.872009,-5.619003l-2.804993,-2.810989l-0.932983,-2.808037l0.932983,-1.875l0,-2.810997l-1.868988,-1.871994l-0.933014,0l0.933014,-4.682999l4.673981,-5.618999l3.735016,-4.682991l0.936005,0l1.868988,1.871998l0,3.746994l1.865997,2.810997l0.936005,4.679993l-0.936005,8.433037l0.936005,0.932999l4.67099,-4.680038l1.869019,-0.938957l2.802002,4.685997l1.868988,0l0.932983,-4.685997l-2.801971,-1.872032l0,-1.875008l3.737976,-1.872002l4.671021,1.872002l0.932983,4.685997l3.738007,-2.810989l0.932983,2.810989l0,3.74704l3.738037,0.932999l1.868988,3.746994l2.802002,-1.871994l-0.933014,-4.682999l2.802002,0l3.737976,4.682999l-1.868988,4.682983l4.671021,3.747009l2.802002,-1.872009l0.935974,-4.685989l5.604034,0l0.936005,4.685989l-3.738037,4.68l0.932983,1.874992l4.671021,-3.746994l0,-2.807999l1.869019,-1.875l3.737976,0l-2.802002,4.682999l-2.804993,3.746994l3.738007,0l3.738007,0.936005l2.802002,-0.936005l0.936005,2.807999l-1.872009,1.875008l-3.735016,0l-3.737976,1.871986l3.737976,4.683006l4.671021,0l4.67099,4.682991l3.738007,0l3.738007,-1.875l1.868988,0l1.865997,1.875l-0.933014,2.807999l1.869019,1.875l3.735016,0l1.868988,-1.875l0.936005,1.875l0.932983,1.872025l4.67099,-1.872025l2.802032,0l1.868988,1.872025l-0.933014,2.810982l-2.801971,0l0,1.871994l0.932983,2.810997l0.933014,0l0,3.746094l-2.802032,0l0,2.809204l2.802032,1.87381l0,4.682693l-2.802032,0l-1.868988,-1.872589l-1.868988,0l-1.865997,-0.9375l-2.804993,-6.555618l-1.868988,-1.874084l-5.604034,1.874084l-5.604004,0l2.802032,2.809204l0,1.87381l-4.671021,0l2.802002,2.810104l2.802002,3.745178l2.804993,0l2.802002,4.683014l3.735016,-1.872604l3.737976,1.872604l0.933014,4.682709l6.540009,1.873795l-0.933014,2.809204l0,4.682693l3.738007,4.683899l0.932983,1.872604l-7.473022,0l-10.277985,-6.556503l-0.932983,1.873795l-3.738007,0l-0.932983,2.810104l8.406006,3.746384l2.804993,2.809204l6.540009,0l2.801971,1.872604l-2.801971,6.556503l-12.147034,-3.746399l-5.603973,0l-3.738007,-0.936295l-6.540009,0.936295l-4.67099,-4.682709l0.936005,-4.682983l-3.741028,0l-7.472961,-2.810104l-2.802032,-6.555298l-3.737976,0l0.935974,6.555298l-4.670959,-1.872604l-2.805054,2.810104l-7.472961,1.872604l-5.607025,-4.682709l2.804993,-8.429398l9.34201,0l7.473022,-2.810089l0,-2.808914l-2.802002,-3.746399l1.868988,-4.682999l2.802002,-4.682693l6.540009,0l3.737976,2.810104l3.734985,0l2.802032,-2.810104l-1.865997,-4.682999l-7.476013,0l0,2.809189l-3.735016,0l-3.737976,-2.809189l0.932983,-4.685097l-0.932983,-1.871994l-12.144012,-13.113014l-9.345001,-2.807991l-2.801971,-3.747002l-3.738007,-4.682999l-4.671021,-2.807999l-2.801971,0l2.801971,6.554993l-0.932983,0.936005l-6.540009,-2.807991l-3.738007,0l-4.67099,4.682991l-11.210999,-4.682991l-5.605804,0l-6.540314,-4.682999l-0.933868,-4.682991l1.868988,0l3.737091,0.935989l0.934204,-2.807999l-4.671295,0l-0.93512,-3.746994l-3.737091,-0.938995l-0.932678,-4.679993l0.932678,-6.558029l2.803223,-4.682999l6.540283,-8.429993l3.737091,-1.871998z" id="path7788" stroke-miterlimit="10" stroke-linecap="square" stroke="#ffffff" fill="#bfbfbf"/>
   </g>
  </g>
  <line id="svg_1" y2="78" x2="622" y1="79" x1="622" stroke="#ffffff" fill="none"/>
 </g>
</svg>